<?xml version="1.0" encoding="utf-8"?>
<!-- Generator: Adobe Illustrator 23.1.1, SVG Export Plug-In . SVG Version: 6.00 Build 0)  -->
<svg version="1.1" id="Layer_1" xmlns="http://www.w3.org/2000/svg" xmlns:xlink="http://www.w3.org/1999/xlink" x="0px" y="0px"
	 viewBox="0 0 24 24" style="enable-background:new 0 0 24 24;" xml:space="preserve">
<style type="text/css">
	.st0{fill:#DA202C;}
</style>
<circle class="st0" cx="12" cy="12" r="4"/>
<path class="st0" d="M17.69,0H6.31C2.82,0,0,2.82,0,6.31v11.38C0,21.18,2.82,24,6.31,24h11.38c3.48,0,6.31-2.82,6.31-6.31V6.31
	C24,2.82,21.18,0,17.69,0z M12,19.36c-4.06,0-7.36-3.29-7.36-7.36c0-4.06,3.29-7.36,7.36-7.36c4.06,0,7.36,3.29,7.36,7.36
	C19.36,16.06,16.06,19.36,12,19.36z M19.36,6.04c-0.94,0-1.71-0.77-1.71-1.71c0-0.94,0.77-1.71,1.71-1.71s1.71,0.77,1.71,1.71
	C21.07,5.27,20.3,6.04,19.36,6.04z"/>
</svg>
